<mxfile host="app.diagrams.net" modified="2024-04-01T08:01:52.856Z" agent="Mozilla/5.0 (Macintosh; Intel Mac OS X 10_15_7) AppleWebKit/605.1.15 (KHTML, like Gecko) Version/17.4 Safari/605.1.15" etag="FvtW1CsyGT8BZONyqjDl" version="24.2.1" type="device">
  <diagram name="Page-1" id="ms_TYuhXP2c-ZFmTr5Z6">
    <mxGraphModel dx="984" dy="667" grid="1" gridSize="10" guides="1" tooltips="1" connect="1" arrows="1" fold="1" page="1" pageScale="1" pageWidth="827" pageHeight="1169" math="0" shadow="0">
      <root>
        <mxCell id="0" />
        <mxCell id="1" parent="0" />
        <mxCell id="3Dt0CnfY7j97TxKUfBEn-28" value="" style="rounded=0;whiteSpace=wrap;html=1;fillColor=#f5f5f5;fontColor=#333333;strokeColor=#666666;" vertex="1" parent="1">
          <mxGeometry x="80" y="40" width="520" height="960" as="geometry" />
        </mxCell>
        <mxCell id="3Dt0CnfY7j97TxKUfBEn-1" value="&lt;font style=&quot;font-size: 20px;&quot;&gt;.c&lt;/font&gt;" style="shape=card;whiteSpace=wrap;html=1;fillColor=#f8cecc;strokeColor=#b85450;" vertex="1" parent="1">
          <mxGeometry x="360" y="80" width="80" height="80" as="geometry" />
        </mxCell>
        <mxCell id="3Dt0CnfY7j97TxKUfBEn-4" value="&lt;font style=&quot;font-size: 15px;&quot;&gt;Pre-processor&lt;/font&gt;" style="rounded=0;whiteSpace=wrap;html=1;fillColor=#ffe6cc;strokeColor=#d79b00;fontStyle=1" vertex="1" parent="1">
          <mxGeometry x="340" y="200" width="120" height="40" as="geometry" />
        </mxCell>
        <mxCell id="3Dt0CnfY7j97TxKUfBEn-5" value="&lt;font style=&quot;font-size: 20px;&quot;&gt;.i&lt;/font&gt;" style="shape=card;whiteSpace=wrap;html=1;fillColor=#f8cecc;strokeColor=#b85450;" vertex="1" parent="1">
          <mxGeometry x="360" y="280" width="80" height="80" as="geometry" />
        </mxCell>
        <mxCell id="3Dt0CnfY7j97TxKUfBEn-6" value="&lt;font style=&quot;font-size: 15px;&quot;&gt;Compiler&lt;/font&gt;" style="rounded=0;whiteSpace=wrap;html=1;fillColor=#ffe6cc;strokeColor=#d79b00;fontStyle=1" vertex="1" parent="1">
          <mxGeometry x="350" y="400" width="120" height="40" as="geometry" />
        </mxCell>
        <mxCell id="3Dt0CnfY7j97TxKUfBEn-7" value="&lt;font style=&quot;font-size: 20px;&quot;&gt;.s&lt;/font&gt;" style="shape=card;whiteSpace=wrap;html=1;fillColor=#f8cecc;strokeColor=#b85450;" vertex="1" parent="1">
          <mxGeometry x="360" y="480" width="80" height="80" as="geometry" />
        </mxCell>
        <mxCell id="3Dt0CnfY7j97TxKUfBEn-12" value="&lt;font style=&quot;font-size: 15px;&quot;&gt;Linker&lt;/font&gt;" style="rounded=0;whiteSpace=wrap;html=1;fillColor=#ffe6cc;strokeColor=#d79b00;fontStyle=1" vertex="1" parent="1">
          <mxGeometry x="340" y="800" width="120" height="40" as="geometry" />
        </mxCell>
        <mxCell id="3Dt0CnfY7j97TxKUfBEn-14" value="" style="endArrow=classic;html=1;rounded=0;exitX=0.5;exitY=1;exitDx=0;exitDy=0;exitPerimeter=0;entryX=0.5;entryY=0;entryDx=0;entryDy=0;" edge="1" parent="1" source="3Dt0CnfY7j97TxKUfBEn-1" target="3Dt0CnfY7j97TxKUfBEn-4">
          <mxGeometry width="50" height="50" relative="1" as="geometry">
            <mxPoint x="450" y="230" as="sourcePoint" />
            <mxPoint x="500" y="180" as="targetPoint" />
          </mxGeometry>
        </mxCell>
        <mxCell id="3Dt0CnfY7j97TxKUfBEn-15" value="" style="endArrow=classic;html=1;rounded=0;exitX=0.5;exitY=1;exitDx=0;exitDy=0;entryX=0.5;entryY=0;entryDx=0;entryDy=0;entryPerimeter=0;" edge="1" parent="1" source="3Dt0CnfY7j97TxKUfBEn-4" target="3Dt0CnfY7j97TxKUfBEn-5">
          <mxGeometry width="50" height="50" relative="1" as="geometry">
            <mxPoint x="450" y="230" as="sourcePoint" />
            <mxPoint x="500" y="180" as="targetPoint" />
          </mxGeometry>
        </mxCell>
        <mxCell id="3Dt0CnfY7j97TxKUfBEn-16" value="" style="endArrow=classic;html=1;rounded=0;exitX=0.5;exitY=1;exitDx=0;exitDy=0;exitPerimeter=0;entryX=0.425;entryY=0;entryDx=0;entryDy=0;entryPerimeter=0;" edge="1" parent="1" source="3Dt0CnfY7j97TxKUfBEn-5" target="3Dt0CnfY7j97TxKUfBEn-6">
          <mxGeometry width="50" height="50" relative="1" as="geometry">
            <mxPoint x="450" y="230" as="sourcePoint" />
            <mxPoint x="500" y="180" as="targetPoint" />
          </mxGeometry>
        </mxCell>
        <mxCell id="3Dt0CnfY7j97TxKUfBEn-18" value="" style="endArrow=classic;html=1;rounded=0;exitX=0.417;exitY=1.05;exitDx=0;exitDy=0;exitPerimeter=0;entryX=0.5;entryY=0;entryDx=0;entryDy=0;entryPerimeter=0;" edge="1" parent="1" source="3Dt0CnfY7j97TxKUfBEn-6" target="3Dt0CnfY7j97TxKUfBEn-7">
          <mxGeometry width="50" height="50" relative="1" as="geometry">
            <mxPoint x="450" y="420" as="sourcePoint" />
            <mxPoint x="500" y="370" as="targetPoint" />
          </mxGeometry>
        </mxCell>
        <mxCell id="3Dt0CnfY7j97TxKUfBEn-19" value="&lt;font style=&quot;font-size: 15px;&quot;&gt;Assembler&lt;/font&gt;" style="rounded=0;whiteSpace=wrap;html=1;fillColor=#ffe6cc;strokeColor=#d79b00;fontStyle=1" vertex="1" parent="1">
          <mxGeometry x="350" y="600" width="120" height="40" as="geometry" />
        </mxCell>
        <mxCell id="3Dt0CnfY7j97TxKUfBEn-20" value="" style="endArrow=classic;html=1;rounded=0;exitX=0.5;exitY=1;exitDx=0;exitDy=0;exitPerimeter=0;entryX=0.417;entryY=0;entryDx=0;entryDy=0;entryPerimeter=0;" edge="1" parent="1" source="3Dt0CnfY7j97TxKUfBEn-7" target="3Dt0CnfY7j97TxKUfBEn-19">
          <mxGeometry width="50" height="50" relative="1" as="geometry">
            <mxPoint x="450" y="420" as="sourcePoint" />
            <mxPoint x="500" y="370" as="targetPoint" />
          </mxGeometry>
        </mxCell>
        <mxCell id="3Dt0CnfY7j97TxKUfBEn-21" value="&lt;font style=&quot;font-size: 20px;&quot;&gt;.o&lt;/font&gt;" style="shape=card;whiteSpace=wrap;html=1;fillColor=#f8cecc;strokeColor=#b85450;" vertex="1" parent="1">
          <mxGeometry x="360" y="680" width="80" height="80" as="geometry" />
        </mxCell>
        <mxCell id="3Dt0CnfY7j97TxKUfBEn-22" value="" style="endArrow=classic;html=1;rounded=0;exitX=0.408;exitY=1.05;exitDx=0;exitDy=0;exitPerimeter=0;entryX=0.5;entryY=0;entryDx=0;entryDy=0;entryPerimeter=0;" edge="1" parent="1" source="3Dt0CnfY7j97TxKUfBEn-19" target="3Dt0CnfY7j97TxKUfBEn-21">
          <mxGeometry width="50" height="50" relative="1" as="geometry">
            <mxPoint x="450" y="600" as="sourcePoint" />
            <mxPoint x="500" y="550" as="targetPoint" />
          </mxGeometry>
        </mxCell>
        <mxCell id="3Dt0CnfY7j97TxKUfBEn-23" value="" style="endArrow=classic;html=1;rounded=0;exitX=0.5;exitY=1;exitDx=0;exitDy=0;exitPerimeter=0;entryX=0.5;entryY=0;entryDx=0;entryDy=0;" edge="1" parent="1" source="3Dt0CnfY7j97TxKUfBEn-21" target="3Dt0CnfY7j97TxKUfBEn-12">
          <mxGeometry width="50" height="50" relative="1" as="geometry">
            <mxPoint x="450" y="800" as="sourcePoint" />
            <mxPoint x="500" y="750" as="targetPoint" />
          </mxGeometry>
        </mxCell>
        <mxCell id="3Dt0CnfY7j97TxKUfBEn-24" value="&lt;font style=&quot;font-size: 15px;&quot;&gt;&lt;b&gt;Executable&lt;/b&gt;&lt;/font&gt;" style="whiteSpace=wrap;html=1;aspect=fixed;fillColor=#d5e8d4;strokeColor=#82b366;" vertex="1" parent="1">
          <mxGeometry x="355" y="880" width="90" height="90" as="geometry" />
        </mxCell>
        <mxCell id="3Dt0CnfY7j97TxKUfBEn-25" value="" style="endArrow=classic;html=1;rounded=0;exitX=0.5;exitY=1;exitDx=0;exitDy=0;entryX=0.5;entryY=0;entryDx=0;entryDy=0;" edge="1" parent="1" source="3Dt0CnfY7j97TxKUfBEn-12" target="3Dt0CnfY7j97TxKUfBEn-24">
          <mxGeometry width="50" height="50" relative="1" as="geometry">
            <mxPoint x="450" y="800" as="sourcePoint" />
            <mxPoint x="500" y="750" as="targetPoint" />
          </mxGeometry>
        </mxCell>
        <mxCell id="3Dt0CnfY7j97TxKUfBEn-26" value="&lt;font style=&quot;font-size: 15px;&quot;&gt;Libraries&lt;/font&gt;" style="rounded=0;whiteSpace=wrap;html=1;fillColor=#dae8fc;strokeColor=#6c8ebf;fontStyle=1" vertex="1" parent="1">
          <mxGeometry x="140" y="800" width="120" height="40" as="geometry" />
        </mxCell>
        <mxCell id="3Dt0CnfY7j97TxKUfBEn-27" value="" style="endArrow=classic;html=1;rounded=0;exitX=1;exitY=0.5;exitDx=0;exitDy=0;entryX=0;entryY=0.5;entryDx=0;entryDy=0;" edge="1" parent="1" source="3Dt0CnfY7j97TxKUfBEn-26" target="3Dt0CnfY7j97TxKUfBEn-12">
          <mxGeometry width="50" height="50" relative="1" as="geometry">
            <mxPoint x="450" y="770" as="sourcePoint" />
            <mxPoint x="500" y="720" as="targetPoint" />
          </mxGeometry>
        </mxCell>
      </root>
    </mxGraphModel>
  </diagram>
</mxfile>
